<svg width="25" height="15" viewBox="0 0 25 15" fill="none" xmlns="http://www.w3.org/2000/svg">
<path id="Vector" d="M1.81552 15C1.33138 15 0.907758 14.8594 0.544655 14.5781C0.181552 14.2969 0 13.9687 0 13.5937V1.40625C0 1.03125 0.181552 0.703125 0.544655 0.421875C0.907758 0.140625 1.33138 0 1.81552 0H22.3914C22.8755 0 23.2991 0.140625 23.6622 0.421875C24.0253 0.703125 24.2069 1.03125 24.2069 1.40625V13.5937C24.2069 13.9687 24.0253 14.2969 23.6622 14.5781C23.2991 14.8594 22.8755 15 22.3914 15H1.81552ZM12.1034 7.92187L1.81552 2.69531V13.5937H22.3914V2.69531L12.1034 7.92187ZM12.1034 6.51562L22.2703 1.40625H1.96681L12.1034 6.51562ZM1.81552 2.69531V1.40625V13.5937V2.69531Z" fill="black"/>
</svg>
