<svg width="18" height="19" viewBox="0 0 18 19" fill="none" xmlns="http://www.w3.org/2000/svg">
<path id="Vector" d="M16.875 19C14.8417 19 12.8208 18.4722 10.8125 17.4167C8.80417 16.3611 7 14.9889 5.4 13.3C3.8 11.6111 2.5 9.70671 1.5 7.58681C0.5 5.4669 0 3.3338 0 1.1875C0 0.848209 0.107142 0.56547 0.321425 0.339282C0.535708 0.113094 0.803567 0 1.125 0H4.625C4.85185 0 5.0544 0.0835648 5.23265 0.250694C5.41088 0.417824 5.525 0.64213 5.575 0.923611L6.25 4.24861C6.28333 4.49491 6.27917 4.71921 6.2375 4.92153C6.19583 5.12384 6.10833 5.29537 5.975 5.43611L3.475 8.10139C4.40833 9.7375 5.45417 11.1625 6.6125 12.3764C7.77083 13.5903 9.08333 14.6194 10.55 15.4639L12.925 12.8778C13.0917 12.6843 13.2833 12.5479 13.5 12.4688C13.7167 12.3896 13.9333 12.3764 14.15 12.4292L17.125 13.1153C17.3802 13.1747 17.5898 13.3083 17.7539 13.5161C17.918 13.7239 18 13.9685 18 14.25V17.8125C18 18.1518 17.8929 18.4345 17.6786 18.6607C17.4643 18.8869 17.1964 19 16.875 19ZM2.725 6.65L4.75 4.48611L4.175 1.58333H1.5C1.5 2.26944 1.6 3.02153 1.8 3.83958C2 4.65764 2.30833 5.59444 2.725 6.65ZM11.95 16.2292C12.6333 16.5634 13.375 16.8361 14.175 17.0472C14.975 17.2583 15.75 17.3815 16.5 17.4167V14.5931L13.925 14.0389L11.95 16.2292Z" fill="black"/>
</svg>
